<svg version="1.1" xmlns="http://www.w3.org/2000/svg" width="950" height="450">
<path d="M0 0 C313.5 0 627 0 950 0 C950 148.5 950 297 950 450 C636.5 450 323 450 0 450 C0 301.5 0 153 0 0 Z " fill="#262729" transform="translate(0,0)" data-index="0" style="visibility: visible; opacity: 1; fill: rgb(255, 255, 255);"></path>
<path d="M0 0 C6.6 0 13.2 0 20 0 C20.66 3.96 21.32 7.92 22 12 C22.74765625 11.48308594 23.4953125 10.96617187 24.265625 10.43359375 C25.25046875 9.77488281 26.2353125 9.11617187 27.25 8.4375 C28.22453125 7.77621094 29.1990625 7.11492187 30.203125 6.43359375 C33 5 33 5 35.1015625 5.07421875 C37.45563549 6.22219261 39.17927679 7.62162965 41.125 9.375 C41.80820312 9.98085937 42.49140625 10.58671875 43.1953125 11.2109375 C45 13 45 13 47 16 C46.74012154 20.6778122 44.30879764 24.05270081 42 28 C42 28.66 42 29.32 42 30 C43.28197266 30.30744141 43.28197266 30.30744141 44.58984375 30.62109375 C45.69457031 30.89050781 46.79929687 31.15992188 47.9375 31.4375 C49.59072266 31.83775391 49.59072266 31.83775391 51.27734375 32.24609375 C54 33 54 33 55 34 C55.08631874 35.34267413 55.10706473 36.68974322 55.09765625 38.03515625 C55.09282227 39.24848633 55.09282227 39.24848633 55.08789062 40.48632812 C55.07532227 41.7615332 55.07532227 41.7615332 55.0625 43.0625 C55.05798828 43.91650391 55.05347656 44.77050781 55.04882812 45.65039062 C55.03700373 47.76695663 55.01906769 49.88348685 55 52 C50.38 53.32 45.76 54.64 41 56 C42.010625 57.546875 43.02125 59.09375 44.0625 60.6875 C47.01348618 65.20431558 47.01348618 65.20431558 46.95703125 68.53515625 C45.73198392 71.69027814 44.05546979 73.40605179 41.625 75.75 C40.83351563 76.52859375 40.04203125 77.3071875 39.2265625 78.109375 C37 80 37 80 34 81 C30.13588542 78.94771339 26.63931167 76.44047959 23 74 C21.68 78.62 20.36 83.24 19 88 C13.06 88 7.12 88 1 88 C-2.375 79 -2.375 79 -3 75 C-6.12363511 76.10245945 -8.32148366 77.24111274 -11 79.25 C-14 81 -14 81 -16.4375 80.6875 C-21.13368778 77.59488853 -24.88828566 73.66757151 -28 69 C-27.64852851 65.44041642 -25.79020015 62.74585556 -23.9375 59.75 C-23.38964844 58.85796875 -22.84179688 57.9659375 -22.27734375 57.046875 C-21.85582031 56.37140625 -21.43429687 55.6959375 -21 55 C-21.99902344 54.80664062 -22.99804688 54.61328125 -24.02734375 54.4140625 C-25.31769531 54.15367187 -26.60804688 53.89328125 -27.9375 53.625 C-29.86916016 53.24214844 -29.86916016 53.24214844 -31.83984375 52.8515625 C-32.88269531 52.57054687 -33.92554688 52.28953125 -35 52 C-36.51714839 48.96570323 -36.14363916 45.82398333 -36.125 42.5 C-36.12886719 41.81035156 -36.13273438 41.12070313 -36.13671875 40.41015625 C-36.12666646 35.25333293 -36.12666646 35.25333293 -35 33 C-30.11467004 31.50956035 -26.12543158 30.89734472 -21 31 C-21.77537109 29.77023438 -21.77537109 29.77023438 -22.56640625 28.515625 C-23.22511719 27.43796875 -23.88382813 26.3603125 -24.5625 25.25 C-25.22378906 24.18265625 -25.88507812 23.1153125 -26.56640625 22.015625 C-28 19 -28 19 -27.8203125 16.76171875 C-25.49488943 11.76759586 -21.44761782 8.08610216 -17 5 C-12.12351891 4.7433431 -7.91230494 8.36914481 -4 11 C-1.93648216 7.31514671 -1.23326125 4.31641436 0 0 Z " fill="#EF7E23" transform="translate(636,176)" data-index="1" style="visibility: visible; opacity: 1;"></path>
<path d="M0 0 C3.96 0 7.92 0 12 0 C12 11.55 12 23.1 12 35 C39.06 35 66.12 35 94 35 C94 23.45 94 11.9 94 0 C97.96 0 101.92 0 106 0 C106 15.51 106 31.02 106 47 C71.02 47 36.04 47 0 47 C0 31.49 0 15.98 0 0 Z " fill="#BABABA" transform="translate(108,228)" data-index="2" style="visibility: visible; opacity: 1;"></path>
<path d="M0 0 C34.25 0 34.25 0 40.8125 5.25 C45.94262958 11.69930575 47.74496199 15.73081689 47.453125 24.05859375 C46.55820542 29.86785619 43.65583971 33.46531929 39.4375 37.375 C35.55599658 39.96266895 32.95569831 41.25584229 28.234375 41.1953125 C27.43225586 41.19031738 26.63013672 41.18532227 25.80371094 41.18017578 C24.79598633 41.16196777 23.78826172 41.14375977 22.75 41.125 C19.5325 41.08375 16.315 41.0425 13 41 C13 49.58 13 58.16 13 67 C8.71 67 4.42 67 0 67 C0 44.89 0 22.78 0 0 Z " fill="#EE7D23" transform="translate(764,186)" data-index="3" style="visibility: visible; opacity: 1;"></path>
<path d="M0 0 C3.3 0 6.6 0 10 0 C13.28900589 7.14882318 16.07897631 14.41052919 18.765625 21.8046875 C19.42301666 23.60608688 19.42301666 23.60608688 20.09368896 25.44387817 C21.01298938 27.96623972 21.93091938 30.48905133 22.84667969 33.01269531 C24.0203158 36.24603412 25.20130196 39.47663424 26.38422012 42.70658684 C27.51579242 45.80017304 28.6403231 48.89631601 29.765625 51.9921875 C30.19055237 53.15152802 30.61547974 54.31086853 31.05328369 55.50534058 C31.44078796 56.57720612 31.82829224 57.64907166 32.22753906 58.75341797 C32.57077209 59.69667938 32.91400513 60.6399408 33.26763916 61.61178589 C34 64 34 64 34 67 C29.71 67 25.42 67 21 67 C18 58.375 18 58.375 18 55 C9.75 55 1.5 55 -7 55 C-7.33 56.98 -7.66 58.96 -8 61 C-8.99 63.475 -8.99 63.475 -10 66 C-14.29 66 -18.58 66 -23 66 C-22.25921822 61.55530934 -21.48142058 58.16799399 -19.97460938 54.02636719 C-19.55747681 52.87207214 -19.14034424 51.7177771 -18.71057129 50.52850342 C-18.03399475 48.68134735 -18.03399475 48.68134735 -17.34375 46.796875 C-16.87633106 45.51001932 -16.40933734 44.22300912 -15.94274902 42.93585205 C-14.96739769 40.24840351 -13.98873015 37.56219646 -13.00732422 34.87695312 C-11.74862358 31.43295869 -10.49550557 27.98696844 -9.24449921 24.54017258 C-8.05018485 21.25009618 -6.8534217 17.96091257 -5.65625 14.671875 C-5.20519897 13.4323407 -4.75414795 12.1928064 -4.28942871 10.91571045 C-3.87229614 9.77402405 -3.45516357 8.63233765 -3.02539062 7.45605469 C-2.6575647 6.44822937 -2.28973877 5.44040405 -1.9107666 4.40203857 C-1 2 -1 2 0 0 Z " fill="#ED7D23" transform="translate(723,186)" data-index="4" style="visibility: visible; opacity: 1;"></path>
<path d="M0 0 C2.97 0 5.94 0 9 0 C11.44112816 5.87679001 13.69029586 11.79302019 15.75 17.8125 C16.17796875 19.05644531 16.6059375 20.30039063 17.046875 21.58203125 C17.89220374 24.61343555 18.21344253 26.88729646 18 30 C18.66 30 19.32 30 20 30 C20.10183594 28.74316406 20.20367188 27.48632812 20.30859375 26.19140625 C20.93226046 20.5784059 22.4439828 15.33380908 24.0625 9.9375 C24.48499023 8.49600586 24.48499023 8.49600586 24.91601562 7.02539062 C25.60398811 4.68161994 26.30105005 2.34052048 27 0 C31.29 0 35.58 0 40 0 C39.34541342 3.27293288 38.68523518 6.23825288 37.70898438 9.39135742 C37.45201782 10.22539597 37.19505127 11.05943451 36.93029785 11.91874695 C36.65423706 12.80536514 36.37817627 13.69198334 36.09375 14.60546875 C35.66660706 15.98609245 35.66660706 15.98609245 35.23083496 17.39460754 C34.63018966 19.33400102 34.02831578 21.27301437 33.42529297 23.21166992 C32.50035804 26.18634851 31.57997215 29.16240693 30.66015625 32.13867188 C30.07579007 34.02352099 29.49116367 35.90828946 28.90625 37.79296875 C28.63018921 38.68565964 28.35412842 39.57835052 28.06970215 40.49809265 C27.68425232 41.73496574 27.68425232 41.73496574 27.29101562 42.99682617 C27.06530884 43.72342941 26.83960205 44.45003265 26.60705566 45.19865417 C26 47 26 47 25 49 C21.7 49 18.4 49 15 49 C11.15558089 39.83253904 8.08579092 30.44252022 5 21 C3.0133539 23.97996915 2.14490026 26.32827114 1.08984375 29.7265625 C0.73986328 30.8403125 0.38988281 31.9540625 0.02929688 33.1015625 C-0.33099609 34.26429688 -0.69128906 35.42703125 -1.0625 36.625 C-1.77980825 38.93054296 -2.49971721 41.23527895 -3.22265625 43.5390625 C-3.53984619 44.56209473 -3.85703613 45.58512695 -4.18383789 46.63916016 C-5 49 -5 49 -6 50 C-7.68608966 50.07205511 -9.37500659 50.08386068 -11.0625 50.0625 C-11.98160156 50.05347656 -12.90070312 50.04445312 -13.84765625 50.03515625 C-14.55792969 50.02355469 -15.26820313 50.01195312 -16 50 C-19.83448246 38.95465451 -23.12066275 27.79781878 -26.27050781 16.54052734 C-27.27266976 13.05040111 -28.35366189 9.58555366 -29.44482422 6.12231445 C-30 4 -30 4 -30 1 C-25.71 1 -21.42 1 -17 1 C-14.69 9.91 -12.38 18.82 -10 28 C-6.7 18.76 -3.4 9.52 0 0 Z " fill="#F3F5F4" transform="translate(539,203)" data-index="5" style="visibility: visible; opacity: 1; fill: rgb(0, 0, 0);"></path>
<path d="M0 0 C6.00031361 2.74300051 10.04181051 7.21391573 12.61328125 13.3125 C13.05207949 16.71816431 12.98353551 20.13132926 12.98828125 23.5625 C13.01277344 24.47902344 13.03726563 25.39554688 13.0625 26.33984375 C13.09159134 33.13751999 11.93563592 38.72768792 7.20092773 43.83642578 C1.45900587 48.92299463 -3.9299581 49.8235174 -11.375 49.6953125 C-17.20967233 48.953681 -20.76213945 45.97983139 -24.76171875 41.875 C-28.50657975 35.96964227 -28.77879095 30.23148036 -28.82421875 23.4375 C-28.85708984 22.57769531 -28.88996094 21.71789062 -28.92382812 20.83203125 C-28.97733233 14.4212543 -27.44895048 10.2839192 -23.38671875 5.3125 C-16.57760506 -0.99838586 -9.05298192 -2.60773293 0 0 Z " fill="#F4F6F5" transform="translate(269.38671875,203.6875)" data-index="6" style="visibility: visible; opacity: 1; fill: rgb(0, 0, 0);"></path>
<path d="M0 0 C5.59402828 2.55727007 9.31586219 6.21970879 11.72265625 11.95703125 C14.03913498 20.68446647 14.34303448 32.57933164 9.8828125 40.6171875 C6.61602242 44.97960872 2.78752593 47.5726224 -2.38671875 49.3125 C-9.33705975 50.22323434 -15.02508454 49.96113799 -20.76953125 45.7421875 C-24.68609102 42.27972162 -28.00237659 38.25616279 -28.69311523 32.96582031 C-28.7635007 30.16421303 -28.80762515 27.36497497 -28.82421875 24.5625 C-28.85708984 23.59828125 -28.88996094 22.6340625 -28.92382812 21.640625 C-28.97415396 14.9061138 -27.74160981 10.51244158 -23.38671875 5.3125 C-16.57760506 -0.99838586 -9.05298192 -2.60773293 0 0 Z " fill="#F4F6F6" transform="translate(495.38671875,203.6875)" data-index="7" style="visibility: visible; opacity: 1; fill: rgb(0, 0, 0);"></path>
<path d="M0 0 C7.99011272 7.99011272 8 13.43972353 8 25 C-2.23 25 -12.46 25 -23 25 C-20 33 -20 33 -15 35 C-10.7732569 35.15627043 -7.06043388 34.64660603 -3.4375 32.4375 C-2.963125 31.963125 -2.48875 31.48875 -2 31 C1.36591866 32.44253657 3.51047079 34.33264727 6 37 C4.15115313 41.62706061 1.36806929 42.96443722 -3.01171875 45.01171875 C-9.67059865 47.21393655 -17.03811435 47.26456019 -23.5 44.375 C-29.29277918 40.87494184 -32.60283563 36.02962176 -34.49609375 29.625 C-36.19296321 20.78549399 -35.94422961 11.93667549 -30.86328125 4.2890625 C-27.78700893 0.31028757 -24.55191727 -2.2202475 -19.75 -3.6875 C-12.2028386 -4.54513198 -6.40832067 -4.52929448 0 0 Z " fill="#F3F5F4" transform="translate(362,207)" data-index="8" style="visibility: visible; opacity: 1; fill: rgb(0, 0, 0);"></path>
<path d="M0 0 C4.31880649 3.11863289 7.88902864 7.3701133 9.85546875 12.33984375 C10.61418974 19.00953062 10.75169328 25.70893376 7.26953125 31.62109375 C4.18307683 35.37258531 0.18229238 38.17643194 -4.14453125 40.33984375 C-11.31593356 40.86140028 -17.96774401 41.29298758 -24.14453125 37.33984375 C-28.40847515 33.21598836 -32.72660202 28.88410076 -33.4453125 22.7890625 C-33.4786731 14.92708189 -32.20883512 8.7748598 -26.78125 2.6953125 C-19.09557816 -3.6696711 -8.63375105 -4.84248312 0 0 Z " fill="#272728" transform="translate(657.14453125,199.66015625)" data-index="9" style="visibility: visible; opacity: 1; fill: rgb(255, 255, 255);"></path>
<path d="M0 0 C4.29 0 8.58 0 13 0 C14.50562545 4.26892612 16.00472022 8.53995133 17.5 12.8125 C17.92925781 14.02744141 18.35851562 15.24238281 18.80078125 16.49414062 C19.40986328 18.23920898 19.40986328 18.23920898 20.03125 20.01953125 C20.40830078 21.09307861 20.78535156 22.16662598 21.17382812 23.27270508 C22 26 22 26 22 29 C22.66 29 23.32 29 24 29 C24.13921875 27.60394531 24.13921875 27.60394531 24.28125 26.1796875 C25.02709066 20.96668148 26.80132557 16.09140556 28.5 11.125 C28.82097656 10.16335937 29.14195312 9.20171875 29.47265625 8.2109375 C31.85939166 1.14060834 31.85939166 1.14060834 33 0 C35.18639453 -0.07258946 37.37500389 -0.08373783 39.5625 -0.0625 C41.35880859 -0.04896484 41.35880859 -0.04896484 43.19140625 -0.03515625 C44.11824219 -0.02355469 45.04507813 -0.01195312 46 0 C43.93021745 6.3293454 41.72343894 12.59773868 39.42578125 18.84765625 C39.09708542 19.74495956 38.76838959 20.64226288 38.42973328 21.5667572 C37.39187956 24.39912198 36.35222155 27.23082042 35.3125 30.0625 C34.60339564 31.99670081 33.89441014 33.9309452 33.18554688 35.86523438 C31.45840404 40.57732751 29.72964406 45.28882443 28 50 C24.7 50 21.4 50 18 50 C15.5945558 43.52313143 13.19187313 37.04524781 10.79174805 30.56640625 C9.97479937 28.36234849 9.1570957 26.15857042 8.33862305 23.95507812 C7.16256465 20.78849274 5.98922166 17.6209127 4.81640625 14.453125 C4.44971329 13.46757629 4.08302032 12.48202759 3.70521545 11.46661377 C3.3649382 10.5459613 3.02466095 9.62530884 2.67407227 8.67675781 C2.3742897 7.8684552 2.07450714 7.06015259 1.76564026 6.22735596 C1.06425651 4.18693129 0.52329679 2.09318715 0 0 Z " fill="#F1F2F2" transform="translate(282,203)" data-index="10" style="visibility: visible; opacity: 1; fill: rgb(0, 0, 0);"></path>
<path d="M0 0 C1.18851562 0.00902344 2.37703125 0.01804688 3.6015625 0.02734375 C4.51679688 0.03894531 5.43203125 0.05054688 6.375 0.0625 C6.375 3.3625 6.375 6.6625 6.375 10.0625 C4.6734375 10.2790625 4.6734375 10.2790625 2.9375 10.5 C-0.43277201 10.67421478 -0.43277201 10.67421478 -1.625 12.0625 C-1.99260731 14.39067964 -2.32741581 16.7243385 -2.625 19.0625 C0.345 19.0625 3.315 19.0625 6.375 19.0625 C6.375 22.3625 6.375 25.6625 6.375 29.0625 C3.405 29.0625 0.435 29.0625 -2.625 29.0625 C-2.625 41.6025 -2.625 54.1425 -2.625 67.0625 C-6.585 67.0625 -10.545 67.0625 -14.625 67.0625 C-14.76089772 59.490906 -14.87082736 51.91977028 -14.93587303 44.34725094 C-14.96710265 40.83040262 -15.00941594 37.3144364 -15.07763672 33.7980957 C-15.15568789 29.74942879 -15.18448633 25.70167903 -15.2109375 21.65234375 C-15.24190521 20.39791977 -15.27287292 19.14349579 -15.30477905 17.85105896 C-15.30852801 8.08381654 -15.30852801 8.08381654 -11.71337891 3.77563477 C-7.8919489 0.04768838 -5.31544742 -0.05211223 0 0 Z " fill="#F6F8F7" transform="translate(430.625,184.9375)" data-index="11" style="visibility: visible; opacity: 1; fill: rgb(0, 0, 0);"></path>
<path d="M0 0 C3.96 0 7.92 0 12 0 C12.02505615 1.66087646 12.0501123 3.32175293 12.07592773 5.03295898 C12.16979526 11.16992485 12.2700656 17.30677203 12.37231445 23.44360352 C12.4157418 26.10438265 12.4574109 28.76519107 12.49731445 31.42602539 C12.55482872 35.24113815 12.61857668 39.05610242 12.68359375 42.87109375 C12.70030624 44.06899033 12.71701874 45.2668869 12.73423767 46.50108337 C12.75418289 47.6021492 12.77412811 48.70321503 12.79467773 49.83764648 C12.81022202 50.81249496 12.8257663 51.78734344 12.84178162 52.79173279 C12.75593055 54.97418568 12.75593055 54.97418568 14 56 C16.32817964 56.36760731 18.6618385 56.70241581 21 57 C21 60.3 21 63.6 21 67 C8.11287104 67.86041662 8.11287104 67.86041662 4.3125 64.8125 C0.68529328 60.40103237 -0.2521584 56.86171919 -0.22705078 51.19995117 C-0.22689972 50.05914597 -0.22674866 48.91834076 -0.22659302 47.7429657 C-0.21627045 46.52196671 -0.20594788 45.30096771 -0.1953125 44.04296875 C-0.1924826 42.78486893 -0.18965271 41.5267691 -0.18673706 40.23054504 C-0.17745121 36.89812618 -0.15950476 33.56598453 -0.1373291 30.23364258 C-0.11681017 26.82831203 -0.10772246 23.42295277 -0.09765625 20.01757812 C-0.07561637 13.34496595 -0.04109668 6.67252092 0 0 Z " fill="#F8FAF9" transform="translate(443,185)" data-index="12" style="visibility: visible; opacity: 1; fill: rgb(0, 0, 0);"></path>
<path d="M0 0 C4.29 0 8.58 0 13 0 C13 21.78 13 43.56 13 66 C8.71 66 4.42 66 0 66 C0 44.22 0 22.44 0 0 Z " fill="#EF7E23" transform="translate(820,186)" data-index="13" style="visibility: visible;"></path>
<path d="M0 0 C3.96 0 7.92 0 12 0 C12.33 1.32 12.66 2.64 13 4 C13.598125 3.525625 14.19625 3.05125 14.8125 2.5625 C19.39134307 -0.70810219 24.57249604 -0.66547421 30 0 C33.125 2 33.125 2 35 4 C33.61811547 7.21043882 32.07578097 9.04936365 29.375 11.25 C28.74335938 11.77078125 28.11171875 12.2915625 27.4609375 12.828125 C26.97882813 13.21484375 26.49671875 13.6015625 26 14 C25.01 13.34 24.02 12.68 23 12 C20.04253508 11.41654524 20.04253508 11.41654524 17 12 C14.08542802 14.7873486 13.07916468 16.49169616 12.45410156 20.50512695 C12.4331543 21.81956787 12.41220703 23.13400879 12.390625 24.48828125 C12.37408875 25.19147995 12.35755249 25.89467865 12.34051514 26.6191864 C12.2921906 28.85038112 12.2707009 31.0808952 12.25 33.3125 C12.22182698 34.83141417 12.19189768 36.35029684 12.16015625 37.86914062 C12.08643889 41.57927971 12.03676795 45.2892898 12 49 C8.04 49 4.08 49 0 49 C0 32.83 0 16.66 0 0 Z " fill="#F5F7F6" transform="translate(376,203)" data-index="14" style="visibility: visible; opacity: 1; fill: rgb(0, 0, 0);"></path>
<path d="M0 0 C1.29003906 1.44262695 1.29003906 1.44262695 2.765625 3.48828125 C3.31927734 4.24842529 3.87292969 5.00856934 4.44335938 5.79174805 C5.03955078 6.62359619 5.63574219 7.45544434 6.25 8.3125 C7.51545325 10.05481226 8.78108343 11.79699602 10.046875 13.5390625 C10.69849609 14.44043945 11.35011719 15.34181641 12.02148438 16.27050781 C15.15591993 20.59466743 18.32856121 24.89044914 21.5 29.1875 C22.34353027 30.33375854 22.34353027 30.33375854 23.20410156 31.50317383 C23.74518555 32.23818115 24.28626953 32.97318848 24.84375 33.73046875 C25.36324219 34.4373584 25.88273437 35.14424805 26.41796875 35.87255859 C27.51181965 37.34351797 28.61956173 38.80421201 29.73828125 40.25634766 C30.56392578 41.33021729 30.56392578 41.33021729 31.40625 42.42578125 C31.90447266 43.06555908 32.40269531 43.70533691 32.91601562 44.36450195 C34 46 34 46 34 48 C32.3203125 49.5078125 32.3203125 49.5078125 30.125 51.125 C29.40570313 51.66382813 28.68640625 52.20265625 27.9453125 52.7578125 C26 54 26 54 24 54 C22.70996094 52.55737305 22.70996094 52.55737305 21.234375 50.51171875 C20.68072266 49.75157471 20.12707031 48.99143066 19.55664062 48.20825195 C18.96044922 47.37640381 18.36425781 46.54455566 17.75 45.6875 C16.48454675 43.94518774 15.21891657 42.20300398 13.953125 40.4609375 C13.30150391 39.55956055 12.64988281 38.65818359 11.97851562 37.72949219 C8.84408007 33.40533257 5.67143879 29.10955086 2.5 24.8125 C1.65646973 23.66624146 1.65646973 23.66624146 0.79589844 22.49682617 C0.25481445 21.76181885 -0.28626953 21.02681152 -0.84375 20.26953125 C-1.36324219 19.5626416 -1.88273438 18.85575195 -2.41796875 18.12744141 C-3.51181965 16.65648203 -4.61956173 15.19578799 -5.73828125 13.74365234 C-6.28871094 13.02773926 -6.83914062 12.31182617 -7.40625 11.57421875 C-7.90447266 10.93444092 -8.40269531 10.29466309 -8.91601562 9.63549805 C-10 8 -10 8 -10 6 C-8.3203125 4.4921875 -8.3203125 4.4921875 -6.125 2.875 C-5.40570313 2.33617187 -4.68640625 1.79734375 -3.9453125 1.2421875 C-2 0 -2 0 0 0 Z " fill="#ED7D23" transform="translate(185,144)" data-index="15" style="visibility: visible; opacity: 1;"></path>
<path d="M0 0 C4.10229861 2.28578262 7.59221178 5.05998994 11.125 8.125 C12.28063079 9.11530637 13.43689061 10.10487913 14.59375 11.09375 C15.16738281 11.58488281 15.74101562 12.07601562 16.33203125 12.58203125 C20.49761932 16.12326888 24.75858579 19.55039828 29 23 C40.45315162 32.35264055 40.45315162 32.35264055 46 37 C45.09970429 38.34444159 44.17911978 39.67531438 43.25 41 C42.48429687 42.11375 42.48429687 42.11375 41.703125 43.25 C41.14109375 43.8275 40.5790625 44.405 40 45 C35.5022846 45 35.5022846 45 32.6796875 42.4375 C32.06722168 41.89206543 31.45475586 41.34663086 30.82373047 40.78466797 C30.18064941 40.19572754 29.53756836 39.60678711 28.875 39 C27.52210883 37.79283983 26.16794244 36.58710731 24.8125 35.3828125 C24.15636719 34.79661133 23.50023437 34.21041016 22.82421875 33.60644531 C20.56646958 31.61822401 18.23980491 29.73417228 15.875 27.875 C11.92012527 24.75482245 8.03953433 21.55808529 4.1875 18.3125 C3.64786621 17.86052246 3.10823242 17.40854492 2.55224609 16.94287109 C-0.80437114 14.10345863 -3.93493883 11.14437883 -7 8 C-4.69 5.36 -2.38 2.72 0 0 Z " fill="#EE7D23" transform="translate(162,163)" data-index="16" style="visibility: visible; opacity: 1;"></path>
<path d="M0 0 C7.4260431 0.65017044 14.49479428 2.12981831 21.75 3.8125 C33.45613993 6.47601855 45.18999572 8.84812355 57 11 C56.85904936 12.6254308 56.71207913 14.25034051 56.5625 15.875 C56.48128906 16.77992188 56.40007812 17.68484375 56.31640625 18.6171875 C56 21 56 21 55 23 C35.87907109 19.99132382 16.9320846 16.00443622 -2 12 C-1.85831863 10.56208484 -1.71148957 9.1246763 -1.5625 7.6875 C-1.48128906 6.88699219 -1.40007812 6.08648437 -1.31640625 5.26171875 C-1 3 -1 3 0 0 Z " fill="#ED7D23" transform="translate(135,214)" data-index="17" style="visibility: visible; opacity: 1;"></path>
<path d="M0 0 C4.60162453 0.92032491 8.26067465 2.35259929 12.43359375 4.3515625 C13.14798111 4.68868256 13.86236847 5.02580261 14.59840393 5.37313843 C16.11166718 6.08846031 17.62368237 6.80642766 19.13452148 7.52685547 C21.39638312 8.60539397 23.66162417 9.67651547 25.92773438 10.74609375 C35.01294603 15.04488266 44.03121597 19.46321918 53 24 C51.86546069 27.47988948 50.73783087 30.77259982 49 34 C44.29821485 33.35619422 40.3219377 31.43493602 36.09375 29.39453125 C35.33259888 29.03284348 34.57144775 28.6711557 33.78723145 28.29850769 C31.35561847 27.14173948 28.92773629 25.97737903 26.5 24.8125 C24.10696044 23.67045552 21.71317179 22.52999217 19.31933594 21.38961792 C17.76106537 20.64708047 16.20311863 19.90386302 14.64550781 19.15994263 C8.1236906 16.04780511 1.57220461 13.00445729 -5 10 C-3.35 6.7 -1.7 3.4 0 0 Z " fill="#EE7D23" transform="translate(145,188)" data-index="18" style="visibility: visible; opacity: 1;"></path>
<path d="M0 0 C19.8 0 39.6 0 60 0 C60 3.63 60 7.26 60 11 C40.2 11 20.4 11 0 11 C0 7.37 0 3.74 0 0 Z " fill="#EB7C23" transform="translate(131,241)" data-index="19" style="visibility: visible; opacity: 1;"></path>
<path d="M0 0 C3.88861572 0.70702104 5.07220046 1.53191599 7.4375 4.625 C9.00174629 7.75349259 8.62196398 11.06930084 8.625 14.5 C8.63724609 15.22058594 8.64949219 15.94117188 8.66210938 16.68359375 C8.68092989 23.49661853 8.68092989 23.49661853 6.4375 26.625 C3.47992408 28.35025262 1.7429394 28.64332636 -1.6875 28.4375 C-4.64766124 27.60093269 -5.77406451 27.07233277 -7.5625 24.625 C-9.54196551 18.68660348 -9.92880955 10.26440749 -7.69140625 4.3046875 C-5.48498961 1.30974819 -3.60827711 0.63303107 0 0 Z " fill="#2B2C2E" transform="translate(261.5625,213.375)" data-index="20" style="visibility: visible; opacity: 1; fill: rgb(255, 255, 255);"></path>
<path d="M0 0 C2.36497439 1.86708505 3.66030715 3.32061431 5 6 C5.1509482 8.45290828 5.23128564 10.85858009 5.25 13.3125 C5.27578125 14.62863281 5.3015625 15.94476563 5.328125 17.30078125 C4.9874004 21.14204545 4.30394343 22.96375181 2 26 C-0.58546056 27.96138387 -1.78795025 28.01298264 -5.0625 27.8125 C-8.06931151 26.98082873 -9.18936404 26.47771236 -11 24 C-12.17832621 20.46502138 -12.18397309 17.24106929 -12.1875 13.5625 C-12.20167969 12.24378906 -12.21585937 10.92507812 -12.23046875 9.56640625 C-12.01990615 6.3080393 -11.86213437 4.61688651 -10 2 C-6.2794164 -0.48038907 -4.40203429 -0.46337203 0 0 Z " fill="#2A2B2D" transform="translate(491,214)" data-index="21" style="visibility: visible; opacity: 1; fill: rgb(255, 255, 255);"></path>
<path d="M0 0 C3.5578125 -0.0928125 3.5578125 -0.0928125 7.1875 -0.1875 C8.29387817 -0.22846802 8.29387817 -0.22846802 9.42260742 -0.27026367 C13.827366 -0.32558339 16.5179177 0.29171377 20 3 C21.59745879 6.19491759 21.50816842 9.53209389 21 13 C18.79259319 15.96858157 17.51402627 16.82865791 14 18 C9.33032246 18.13590447 4.67262015 18.04286807 0 18 C0 12.06 0 6.12 0 0 Z " fill="#272728" transform="translate(777,198)" data-index="22" style="visibility: visible; opacity: 1; fill: rgb(255, 255, 255);"></path>
<path d="M0 0 C2.10412898 2.10412898 2.58158372 3.23084857 3.5078125 5.9921875 C3.77207031 6.77980469 4.03632812 7.56742188 4.30859375 8.37890625 C4.57800781 9.20261719 4.84742188 10.02632812 5.125 10.875 C5.40214844 11.69097656 5.67929687 12.50695312 5.96484375 13.34765625 C6.22652344 14.13785156 6.48820313 14.92804688 6.7578125 15.7421875 C7.11576904 16.82282471 7.11576904 16.82282471 7.48095703 17.92529297 C8 20 8 20 8 24 C2.72 24 -2.56 24 -8 24 C-5.65868652 15.86701635 -2.89754422 7.94820431 0 0 Z " fill="#332D28" transform="translate(728,206)" data-index="23" style="visibility: visible; opacity: 1; fill: rgb(255, 255, 255);"></path>
<path d="M0 0 C4.43357093 0.79170909 5.84171883 2.02850194 8.5 5.625 C8.83 7.605 9.16 9.585 9.5 11.625 C3.23 11.625 -3.04 11.625 -9.5 11.625 C-8.36612374 4.82174242 -7.1205728 1.27153086 0 0 Z " fill="#3A3B3D" transform="translate(348.5,212.375)" data-index="24" style="visibility: visible; opacity: 1; fill: rgb(255, 255, 255);"></path>
</svg>