<svg version="1.1" xmlns="http://www.w3.org/2000/svg" width="781" height="237">

<path d="M0 0 C0.98969788 -0.00708481 1.97939575 -0.01416962 2.99908447 -0.02146912 C4.07866425 -0.0189917 5.15824402 -0.01651428 6.27053833 -0.01396179 C7.41240601 -0.01907272 8.55427368 -0.02418365 9.73074341 -0.02944946 C13.51115132 -0.04336679 17.29137735 -0.04238696 21.07180786 -0.04008484 C23.69730701 -0.04397076 26.32280552 -0.04830522 28.94830322 -0.05307007 C34.45449438 -0.0612823 39.96063423 -0.06037577 45.46682739 -0.05497742 C51.82435058 -0.04894005 58.18165232 -0.06124314 64.53913772 -0.08254749 C70.66232798 -0.10230962 76.78541493 -0.10533453 82.90863419 -0.10181236 C85.51055547 -0.10232599 88.11248026 -0.10757151 90.71438217 -0.11762428 C94.35306615 -0.1299563 97.99123759 -0.12321566 101.62991333 -0.11161804 C102.70544464 -0.11926178 103.78097595 -0.12690552 104.88909912 -0.13478088 C110.35977384 -0.09622811 114.39276339 0.10215724 119.07962036 3.26069641 C123.62993936 8.30294179 124.43009275 11.35728721 124.36087036 18.01020813 C123.84067623 24.02224346 121.92003733 29.60275007 120.07962036 35.32319641 C119.66611607 36.64728055 119.25411372 37.97183457 118.84353638 39.29682922 C118.00583984 41.99259009 117.15998148 44.68556054 116.30667114 47.37641907 C114.83639151 52.01789008 113.41312641 56.67344272 111.99075317 61.32978821 C111.02142241 64.49664139 110.04148903 67.66006522 109.06008911 70.82319641 C107.65750362 75.3562408 106.29123229 79.89872692 104.94290161 84.44819641 C104.41225098 86.22081848 104.41225098 86.22081848 103.87088013 88.0292511 C103.1953376 90.2879232 102.52739072 92.54888633 101.86843872 94.81245422 C99.59112345 102.38077383 97.57888922 108.41608671 90.26889229 112.42517281 C85.84810597 114.11234162 81.22043054 113.80466957 76.54812622 113.7624054 C75.40582047 113.76780838 74.26351471 113.77321136 73.08659363 113.77877808 C69.32228444 113.79125408 65.55874165 113.7747817 61.79446411 113.75679016 C59.17325297 113.75694516 56.5520416 113.75843434 53.93083191 113.76119995 C48.44249575 113.76389694 42.95437893 113.75046953 37.46609497 113.72724915 C31.13063922 113.70062917 24.79554973 113.69889832 18.4600572 113.71063751 C12.35124813 113.72143419 6.24259212 113.71511218 0.13379097 113.70108223 C-2.45974785 113.69656755 -5.05329744 113.69623106 -7.64683723 113.70014763 C-11.27087593 113.70305886 -14.89431687 113.68655625 -18.51828003 113.66474915 C-20.12450729 113.67150162 -20.12450729 113.67150162 -21.76318359 113.6783905 C-27.22155175 113.6238365 -31.23963112 113.39992308 -35.92037964 110.26069641 C-40.05899065 105.78652235 -41.30872498 102.26160091 -41.22848511 96.13374329 C-40.54372838 89.74846823 -38.3702534 83.62666774 -36.48287964 77.51069641 C-36.0272394 76.00268808 -35.57258179 74.49438252 -35.11886597 72.98579407 C-33.73657827 68.4054206 -32.32985838 63.83276069 -30.92037964 59.26069641 C-30.49473302 57.87436178 -30.069271 56.48797045 -29.64401245 55.10151672 C-27.40917951 47.82199753 -25.14663292 40.55143736 -22.86618042 33.28608704 C-22.01934726 30.57727016 -21.18320515 27.86556782 -20.35397339 25.15132141 C-20.12750122 24.41349426 -19.90102905 23.67566711 -19.66769409 22.91548157 C-19.10674132 21.08583805 -18.54854701 19.25534935 -17.99069214 17.42475891 C-15.70923962 10.68031897 -13.46800193 5.01098319 -7.06774712 1.14027119 C-4.56187244 0.11384968 -2.70470539 0.00646612 0 0 Z " fill="#F68938" transform="translate(597.9203796386719,63.73930358886719)" data-index="1" style="visibility: visible; opacity: 1;"></path>
<path d="M0 0 C4.62 0 9.24 0 14 0 C14 12.21 14 24.42 14 37 C43.04 37 72.08 37 102 37 C102 24.79 102 12.58 102 0 C106.62 0 111.24 0 116 0 C116 16.83 116 33.66 116 51 C77.72 51 39.44 51 0 51 C0 34.17 0 17.34 0 0 Z " fill="#B4B4B5" transform="translate(42,131)" data-index="2" style="visibility: visible; opacity: 1;"></path>
<path d="M0 0 C8.25 0 16.5 0 25 0 C27.29002751 6.29757566 29.50082973 12.38122371 31.40234375 18.765625 C31.60678604 19.44695496 31.81122833 20.12828491 32.02186584 20.83026123 C32.66344063 22.96928219 33.30090258 25.10949296 33.9375 27.25 C37.10997714 37.90002166 40.42125959 48.47844594 44 59 C46.31 59.33 48.62 59.66 51 60 C51 63.63 51 67.26 51 71 C42.42 71 33.84 71 25 71 C25 67.37 25 63.74 25 60 C26.65 60 28.3 60 30 60 C29.505 56.04 29.505 56.04 29 52 C21.41 52.33 13.82 52.66 6 53 C5.34 55.31 4.68 57.62 4 60 C6.31 60 8.62 60 11 60 C11 63.63 11 67.26 11 71 C2.09 71 -6.82 71 -16 71 C-16 67.37 -16 63.74 -16 60 C-13.03 59.505 -13.03 59.505 -10 59 C-9.75878418 58.2157666 -9.51756836 57.4315332 -9.26904297 56.62353516 C-4.67166793 41.69463636 -0.04695569 26.78461138 5 12 C3.35 12 1.7 12 0 12 C0 8.04 0 4.08 0 0 Z " fill="#2E2B29" transform="translate(596,85)" data-index="3" style="visibility: visible; opacity: 1;"></path>
<path d="M0 0 C4.62 0 9.24 0 14 0 C16.24082022 6.45960786 18.07450277 12.92046003 19.6875 19.5625 C20.02491211 20.93245117 20.02491211 20.93245117 20.36914062 22.33007812 C20.91604456 24.55260261 21.45960591 26.77588546 22 29 C24.00804538 25.98793193 24.99859809 23.43267702 26.1640625 20.01953125 C26.76347656 18.27446289 26.76347656 18.27446289 27.375 16.49414062 C27.7875 15.27919922 28.2 14.06425781 28.625 12.8125 C29.04523438 11.58595703 29.46546875 10.35941406 29.8984375 9.09570312 C30.9361542 6.06509868 31.96983963 3.03317961 33 0 C36.3 0 39.6 0 43 0 C43.29769287 0.87325928 43.59538574 1.74651855 43.90209961 2.64624023 C45.00490624 5.87670347 46.11031797 9.10625018 47.2175293 12.33520508 C47.69677318 13.73458422 48.1749668 15.13432349 48.65209961 16.53442383 C49.33693985 18.54343077 50.02551057 20.5511247 50.71484375 22.55859375 C51.12855225 23.76829834 51.54226074 24.97800293 51.96850586 26.22436523 C52.73313712 28.87196983 52.73313712 28.87196983 54 30 C56.64 20.1 59.28 10.2 62 0 C66.62 0 71.24 0 76 0 C73.88889426 9.80553059 71.13852483 19.23548375 68 28.75 C67.55678704 30.10790831 67.11407683 31.46598083 66.671875 32.82421875 C64.47580875 39.55873994 62.24888237 46.28294345 60 53 C56.37 53 52.74 53 49 53 C47.73266802 49.24764347 46.46937358 45.49395394 45.2097168 41.73901367 C44.57095572 39.8376694 43.92905331 37.9373814 43.28710938 36.03710938 C42.88427734 34.83505859 42.48144531 33.63300781 42.06640625 32.39453125 C41.69459229 31.28956299 41.32277832 30.18459473 40.93969727 29.04614258 C40.113388 26.36756096 39.48689436 23.75757223 39 21 C38.34 21 37.68 21 37 21 C36.75507813 22.23621094 36.51015625 23.47242188 36.2578125 24.74609375 C34.93798884 30.68530024 32.91851269 36.33994239 30.875 42.0625 C30.31619141 43.64708008 30.31619141 43.64708008 29.74609375 45.26367188 C28.83535911 47.84408669 27.91832702 50.42227742 27 53 C23.37 53 19.74 53 16 53 C12.46410061 42.58448084 9.13132492 32.1181208 5.9230957 21.59741211 C5.17420483 19.14394321 4.42022245 16.69207369 3.66601562 14.24023438 C3.18719631 12.67457201 2.70866913 11.10882027 2.23046875 9.54296875 C1.8930793 8.44785225 1.8930793 8.44785225 1.5488739 7.33061218 C0 2.22931377 0 2.22931377 0 0 Z " fill="#F9F9F9" transform="translate(475,104)" data-index="4" style="visibility: visible; opacity: 1;"></path>
<path d="M0 0 C5.48197704 2.45062957 9.42842295 7.26382715 11.796875 12.6796875 C13.99033028 21.47420158 14.56829843 34.12313447 10.02734375 42.203125 C6.07193208 47.27134051 2.16152115 51.17810015 -4.375 52 C-11.06060417 52.52217907 -17.71669935 52.98353471 -23.65625 49.47265625 C-28.62796994 45.21279621 -32.02646251 39.48029097 -32.53613281 32.92871094 C-32.58192762 30.53566599 -32.61024841 28.14344586 -32.625 25.75 C-32.645625 24.92886719 -32.66625 24.10773438 -32.6875 23.26171875 C-32.729444 16.64505264 -31.8539835 10.92184092 -27.47265625 5.7578125 C-26.80105469 5.21898438 -26.12945312 4.68015625 -25.4375 4.125 C-24.76847656 3.57070312 -24.09945313 3.01640625 -23.41015625 2.4453125 C-16.62157385 -2.3757537 -7.90554841 -2.40266667 0 0 Z " fill="#F9F9F9" transform="translate(462.375,105)" data-index="5" style="visibility: visible; opacity: 1;"></path>
<path d="M0 0 C5.15718174 3.09648967 8.71704499 7.03054134 10.7109375 12.70703125 C12.62271762 21.0820313 13.14213951 32.37936877 9.5625 40.4375 C6.07026085 45.6620372 2.45048123 49.07948354 -3.4375 51.4375 C-6.17184596 51.77438041 -8.58782496 51.96328659 -11.3125 51.9375 C-12.37368042 51.92783203 -12.37368042 51.92783203 -13.45629883 51.91796875 C-19.31631828 51.71261475 -23.36026823 50.71035653 -27.4375 46.4375 C-34.68639563 37.5228228 -34.21318142 26.41936952 -33.4375 15.4375 C-32.26255521 9.01693557 -29.02133307 5.03386362 -23.79296875 1.24609375 C-16.80767962 -2.97449147 -7.45285059 -3.30443088 0 0 Z " fill="#F9F9F9" transform="translate(219.4375,105.5625)" data-index="6" style="visibility: visible; opacity: 1;"></path>
<path d="M0 0 C6.40366432 3.83136787 9.22955871 8.43867613 11.5625 15.4375 C11.5625 20.0575 11.5625 24.6775 11.5625 29.4375 C1.0025 29.4375 -9.5575 29.4375 -20.4375 29.4375 C-19.14522999 35.96960948 -19.14522999 35.96960948 -16.65234375 38.3515625 C-12.46569057 40.40427781 -7.98057306 39.97834203 -3.4375 39.4375 C-0.6040257 37.92287267 -0.6040257 37.92287267 1.5625 36.4375 C5.05206136 37.38919855 7.13959942 39.84153509 9.5625 42.4375 C8.05614535 46.65529303 5.32237578 48.2122674 1.5625 50.4375 C-5.31900742 52.73133581 -16.32953411 52.91992675 -23.125 50 C-28.69578536 46.44471226 -32.16614341 40.41316755 -33.8125 34.125 C-35.36637735 24.83410836 -35.53790301 15.66349817 -30.4375 7.4375 C-22.64930529 -1.32625146 -11.21475884 -5.04447647 0 0 Z " fill="#F9F9F9" transform="translate(313.4375,105.5625)" data-index="7" style="visibility: visible; opacity: 1;"></path>
<path d="M0 0 C9.9 0 19.8 0 30 0 C30 3.63 30 7.26 30 11 C27.36 11 24.72 11 22 11 C22 27.17 22 43.34 22 60 C24.64 60 27.28 60 30 60 C30 63.63 30 67.26 30 71 C20.1 71 10.2 71 0 71 C0 67.37 0 63.74 0 60 C2.64 60 5.28 60 8 60 C8 43.83 8 27.66 8 11 C5.36 11 2.72 11 0 11 C0 7.37 0 3.74 0 0 Z " fill="#2B2A2A" transform="translate(654,85)" data-index="8" style="visibility: visible; opacity: 1;"></path>
<path d="M0 0 C4.29 0 8.58 0 13 0 C17.10152401 9.84365763 20.52107211 19.92401576 24 30 C26.75239576 24.16639763 28.92643659 18.40625354 30.625 12.1875 C31.80668884 7.91322674 33.00326649 3.99346701 35 0 C39.62 0 44.24 0 49 0 C46.2289471 8.53369233 43.14015418 16.94860156 40.0625 25.375 C39.53178729 26.8306877 39.0011876 28.28641661 38.47070312 29.7421875 C37.44997403 32.54285977 36.42864197 35.3433108 35.40673828 38.14355469 C33.60034797 43.09419745 31.79990897 48.04699748 30 53 C26.37 53 22.74 53 19 53 C15.3894225 44.1690913 12.07323096 35.23472719 8.77172852 26.28491211 C7.80784785 23.67490283 6.83853943 21.06694834 5.86914062 18.45898438 C5.25227015 16.78918586 4.63572215 15.11926817 4.01953125 13.44921875 C3.73100784 12.67519211 3.44248444 11.90116547 3.1452179 11.10368347 C2.87791367 10.37554947 2.61060944 9.64741547 2.33520508 8.8972168 C2.10078201 8.26341599 1.86635895 7.62961517 1.62483215 6.97660828 C0.90512841 4.69988106 0.46828083 2.34140414 0 0 Z " fill="#F9F9F9" transform="translate(231,104)" data-index="9" style="visibility: visible; opacity: 1;"></path>
<path d="M0 0 C1.88138672 0.05414063 1.88138672 0.05414063 3.80078125 0.109375 C5.22970703 0.17898437 5.22970703 0.17898437 6.6875 0.25 C6.6875 3.88 6.6875 7.51 6.6875 11.25 C4.63671875 11.47786458 2.5859375 11.70572917 0.53515625 11.93359375 C-1.32390229 12.06886614 -1.32390229 12.06886614 -2.3125 13.25 C-2.54325082 14.59747084 -2.72403063 15.95377565 -2.875 17.3125 C-3.019375 18.611875 -3.16375 19.91125 -3.3125 21.25 C-0.0125 21.25 3.2875 21.25 6.6875 21.25 C6.6875 24.55 6.6875 27.85 6.6875 31.25 C3.3875 31.25 0.0875 31.25 -3.3125 31.25 C-3.3125 45.11 -3.3125 58.97 -3.3125 73.25 C-7.6025 73.25 -11.8925 73.25 -16.3125 73.25 C-16.40301192 65.13943596 -16.47633654 57.02926717 -16.51974869 48.91833305 C-16.54058854 45.15174409 -16.56883908 41.38551976 -16.61425781 37.61914062 C-16.65784598 33.98163413 -16.68166419 30.34447747 -16.69200897 26.70672989 C-16.69937726 25.32167176 -16.71376605 23.93663193 -16.73542023 22.55172348 C-16.93642359 9.15895632 -16.93642359 9.15895632 -12.3125 4.25 C-8.32896194 0.15109542 -5.63560871 -0.21067696 0 0 Z " fill="#FBFBFB" transform="translate(391.3125,83.75)" data-index="10" style="visibility: visible; opacity: 1;"></path>
<path d="M0 0 C4.29 0 8.58 0 13 0 C13.33 20.13 13.66 40.26 14 61 C16.97 61.33 19.94 61.66 23 62 C23 65.63 23 69.26 23 73 C9.7706422 73.57798165 9.7706422 73.57798165 5 70 C1.10411553 64.9458796 -0.12651368 61.3591328 -0.11352539 55.05981445 C-0.11344986 53.83877518 -0.11337433 52.6177359 -0.11329651 51.35969543 C-0.10813522 50.04087875 -0.10297394 48.72206207 -0.09765625 47.36328125 C-0.0957908 45.99993441 -0.0943675 44.63658689 -0.09336853 43.27323914 C-0.08955332 39.68771509 -0.07973155 36.10223165 -0.06866455 32.51672363 C-0.05842901 28.8568578 -0.05386632 25.1969854 -0.04882812 21.53710938 C-0.03810838 14.35805227 -0.02051965 7.179037 0 0 Z " fill="#FAFAFA" transform="translate(404,84)" data-index="11" style="visibility: visible; opacity: 1;"></path>
<path d="M0 0 C4.29 0 8.58 0 13 0 C13.33 1.32 13.66 2.64 14 4 C14.598125 3.525625 15.19625 3.05125 15.8125 2.5625 C20.67094621 -0.90781872 26.2623206 -0.49039995 32 0 C35.6875 1.5 35.6875 1.5 38 3 C37.41604794 6.51149841 36.16720355 8.29031758 33.6875 10.8125 C33.09324219 11.43769531 32.49898438 12.06289062 31.88671875 12.70703125 C30 14 30 14 28.0234375 13.71484375 C27.35570312 13.47894531 26.68796875 13.24304688 26 13 C20.76792956 12.42907733 20.76792956 12.42907733 16.0625 14.375 C13.62569654 18.10187589 13.77945248 21.51957962 13.68359375 25.8515625 C13.66281265 26.62559418 13.64203156 27.39962585 13.62062073 28.19711304 C13.55516552 30.67298392 13.49625913 33.14896202 13.4375 35.625 C13.39431093 37.30209448 13.35069652 38.97917807 13.30664062 40.65625 C13.19948829 44.77072308 13.09820955 48.88530414 13 53 C8.71 53 4.42 53 0 53 C0 35.51 0 18.02 0 0 Z " fill="#FAFAFA" transform="translate(332,104)" data-index="12" style="visibility: visible; opacity: 1;"></path>
<path d="M0 0 C1.61874525 1.96583863 3.02639704 3.89133929 4.4375 6 C5.3288465 7.29036502 6.2221565 8.57937541 7.1171875 9.8671875 C7.58608398 10.54491211 8.05498047 11.22263672 8.53808594 11.92089844 C10.9699816 15.37948619 13.51481482 18.75126939 16.0625 22.125 C16.56716797 22.79523193 17.07183594 23.46546387 17.59179688 24.15600586 C19.05996491 26.10493719 20.52991414 28.05251512 22 30 C26.73608239 36.28515422 31.46701661 42.56608809 36 49 C34.48328036 53.55015893 30.83108947 55.50057264 27 58 C23.69468042 54.8035211 20.78723535 51.57632366 18.0625 47.875 C17.29035156 46.83085938 16.51820313 45.78671875 15.72265625 44.7109375 C14.81498627 43.47404484 13.90744494 42.23705777 13 41 C11.27559788 38.65852483 9.5501412 36.31782967 7.82446289 33.97729492 C6.60960916 32.32774041 5.39655001 30.67686271 4.18530273 29.0246582 C1.52815729 25.40398441 -1.13765359 21.79642792 -3.8984375 18.25390625 C-4.32253906 17.70605469 -4.74664062 17.15820312 -5.18359375 16.59375 C-6.28939002 15.17252987 -7.40597526 13.75972218 -8.5234375 12.34765625 C-10 10 -10 10 -10 6 C-8.57421875 4.296875 -8.57421875 4.296875 -6.6875 2.75 C-6.07261719 2.22921875 -5.45773438 1.7084375 -4.82421875 1.171875 C-3 0 -3 0 0 0 Z " fill="#EF7F2F" transform="translate(126,40)" data-index="13" style="visibility: visible; opacity: 1;"></path>
<path d="M0 0 C3.86442484 0.58903473 5.98800111 2.38234079 8.9375 4.875 C9.90945312 5.6896875 10.88140625 6.504375 11.8828125 7.34375 C12.92272525 8.22816791 13.96177568 9.11360064 15 10 C17.10332809 11.79265424 19.2074041 13.58442192 21.3125 15.375 C21.84955566 15.83277832 22.38661133 16.29055664 22.93994141 16.76220703 C27.56007747 20.67847826 32.30859944 24.41464167 37.08959961 28.1315918 C41.53463624 31.5993643 45.82906992 35.20471269 50 39 C48.17495091 42.92300272 45.81729174 45.73787272 43 49 C40.23037478 47.70589233 37.92926164 46.28316171 35.56640625 44.34765625 C34.60287231 43.56213379 34.60287231 43.56213379 33.61987305 42.76074219 C32.94093994 42.20032227 32.26200684 41.63990234 31.5625 41.0625 C30.50059448 40.19286621 30.50059448 40.19286621 29.41723633 39.30566406 C24.43886529 35.21746533 19.5073339 31.07556455 14.60180664 26.90039062 C7.83498932 21.14356185 0.94320701 15.54216703 -6 10 C-5.49477778 5.62140745 -2.82172778 3.18348776 0 0 Z " fill="#F07F2F" transform="translate(100,61)" data-index="14" style="visibility: visible;"></path>
<path d="M0 0 C3.77941838 0.61931108 6.9154957 1.72155806 10.38671875 3.328125 C11.9190918 4.03388672 11.9190918 4.03388672 13.48242188 4.75390625 C14.54009766 5.24761719 15.59777344 5.74132812 16.6875 6.25 C17.72583984 6.72824219 18.76417969 7.20648438 19.83398438 7.69921875 C25.55744977 10.34744286 31.22360952 13.0874713 36.85375977 15.92822266 C39.41538527 17.20743275 42.00849012 18.40005676 44.625 19.5625 C49.14696464 21.59513275 53.58262408 23.74963868 58 26 C57.43613497 27.65260442 56.84821283 29.29701637 56.25 30.9375 C55.92515625 31.85402344 55.6003125 32.77054688 55.265625 33.71484375 C54 36 54 36 52.15142822 36.73106384 C48.37101035 37.20362948 45.17582591 35.07176108 41.859375 33.44140625 C40.65961029 32.8684507 40.65961029 32.8684507 39.43560791 32.28392029 C36.86829735 31.05441946 34.30927461 29.80862759 31.75 28.5625 C30.07342129 27.75741183 28.39634232 26.95336456 26.71875 26.15039062 C16.42456648 21.20955961 6.1968291 16.13834296 -4 11 C-3.27758802 6.88295306 -1.97646289 3.69512628 0 0 Z " fill="#F17F2F" transform="translate(82,87)" data-index="15" style="visibility: visible;"></path>
<path d="M0 0 C5.45460959 -0.18540542 10.3243004 0.48059525 15.65234375 1.609375 C16.47013809 1.77745667 17.28793243 1.94553833 18.13050842 2.11871338 C19.85827271 2.4752872 21.58535221 2.83519359 23.31176758 3.19824219 C25.89705582 3.74150127 28.48436813 4.2740141 31.07226562 4.8046875 C41.45040483 6.94985823 51.7427126 9.33688668 62 12 C62.08594362 16.56038309 62.00825252 19.85797918 60 24 C58.41582305 23.9095647 56.83265538 23.80150484 55.25 23.6875 C54.36828125 23.62949219 53.4865625 23.57148438 52.578125 23.51171875 C48.37341376 22.91038996 44.37033079 21.85855092 40.26025391 20.80004883 C34.90205419 19.48517535 29.48592452 18.50438253 24.0625 17.5 C15.31912682 15.85261675 6.64568899 14.10600116 -2 12 C-1.34 8.04 -0.68 4.08 0 0 Z " fill="#F07F2F" transform="translate(71,116)" data-index="16" style="visibility: visible; opacity: 1;"></path>
<path d="M0 0 C21.12 0 42.24 0 64 0 C64 3.96 64 7.92 64 12 C42.88 12 21.76 12 0 12 C0 8.04 0 4.08 0 0 Z " fill="#F17E2E" transform="translate(68,144)" data-index="17" style="visibility: visible; opacity: 1;"></path>
<path d="M0 0 C2.16015625 0.35546875 2.16015625 0.35546875 4.66015625 2.10546875 C7.44559819 6.28363167 7.34676293 10.34300663 7.41015625 15.29296875 C7.4359375 16.49824219 7.46171875 17.70351562 7.48828125 18.9453125 C7.1342447 22.62476379 6.35508926 24.42362777 4.16015625 27.35546875 C1.28043394 29.69037873 -0.17752169 30.35546875 -3.90234375 30.35546875 C-7.60000086 29.09669186 -8.78198312 27.63280234 -10.83984375 24.35546875 C-11.93412502 21.04382807 -12.00544601 17.89095089 -12.02734375 14.41796875 C-12.04152344 13.39832031 -12.05570312 12.37867188 -12.0703125 11.328125 C-11.76863475 7.4369933 -10.84576644 4.68795184 -8.4921875 1.5703125 C-5.77107173 -0.43031871 -3.2699666 -0.1116574 0 0 Z " fill="#363636" transform="translate(454.83984375,115.64453125)" data-index="18" style="visibility: visible; opacity: 1;"></path>
<path d="M0 0 C0.77085937 -0.04898438 1.54171875 -0.09796875 2.3359375 -0.1484375 C4.625 0.375 4.625 0.375 6.8828125 2.3046875 C9.29721416 6.55966442 9.21338529 10.06536734 9.125 14.875 C9.14046875 15.71675781 9.1559375 16.55851562 9.171875 17.42578125 C9.14608248 21.52034398 8.95233527 23.82944122 6.80859375 27.40234375 C3.75778605 30.15844015 1.70048957 30.44649982 -2.375 30.375 C-5.92859164 28.24284502 -7.909427 26.22050791 -9.375 22.375 C-9.67578125 18.9140625 -9.67578125 18.9140625 -9.6875 15 C-9.70425781 13.71351563 -9.72101563 12.42703125 -9.73828125 11.1015625 C-9.35306091 7.14994744 -8.45821794 4.7304508 -6.375 1.375 C-4.08773777 0.23136888 -2.54647573 0.10998068 0 0 Z " fill="#3E3E3E" transform="translate(208.375,115.625)" data-index="19" style="visibility: visible; opacity: 1;"></path>
<path d="M0 0 C0.66 0 1.32 0 2 0 C2.82136504 2.99764299 3.63042488 5.99848098 4.4375 9 C4.66759766 9.83917969 4.89769531 10.67835937 5.13476562 11.54296875 C6.51411426 16.70053321 7.46499573 21.68685418 8 27 C3.38 27 -1.24 27 -6 27 C-5.43755107 20.54153469 -4.26271535 14.64936738 -2.4375 8.4375 C-2.20353516 7.61958984 -1.96957031 6.80167969 -1.72851562 5.95898438 C-1.15880046 3.97079473 -0.58033086 1.98511701 0 0 Z " fill="#EC8335" transform="translate(612,98)" data-index="20" style="visibility: visible;"></path>
<path d="M0 0 C2.875 2.1875 2.875 2.1875 5 5 C5 6.98 5 8.96 5 11 C-1.6 11 -8.2 11 -15 11 C-13.96700133 4.80200795 -13.54430209 3.78691841 -9 0 C-5.37580435 -1.20806522 -3.66716248 -1.0268055 0 0 Z " fill="#464646" transform="translate(307,115)" data-index="21" style="visibility: visible; opacity: 1;"></path>
<path d="M0 0 C2.31 0.33 4.62 0.66 7 1 C6.34 3.64 5.68 6.28 5 9 C4.67 8.01 4.34 7.02 4 6 C1.36 5.67 -1.28 5.34 -4 5 C-2.68 4.67 -1.36 4.34 0 4 C0 2.68 0 1.36 0 0 Z " fill="#5A483A" transform="translate(129,122)" data-index="22" style="visibility: visible;"></path>
<path d="M0 0 C0.33 0 0.66 0 1 0 C1.1875 2.375 1.1875 2.375 1 5 C0.01 5.66 -0.98 6.32 -2 7 C-2.99 5.35 -3.98 3.7 -5 2 C-3.35 2 -1.7 2 0 2 C0 1.34 0 0.68 0 0 Z " fill="#47403B" transform="translate(153,69)" data-index="23" style="visibility: visible;"></path>
</svg>